<?xml version="1.0" encoding="utf-8"?>
<!-- Generator: Adobe Illustrator 24.0.1, SVG Export Plug-In . SVG Version: 6.00 Build 0)  -->
<svg version="1.1" id="Layer_1" xmlns="http://www.w3.org/2000/svg" xmlns:xlink="http://www.w3.org/1999/xlink" x="0px" y="0px"
	 viewBox="0 0 227.78 52.62" style="enable-background:new 0 0 227.78 52.62;" xml:space="preserve">
<style type="text/css">
	.st0{fill:url(#SVGID_1_);}
	.st1{fill-rule:evenodd;clip-rule:evenodd;fill:#FFFFFF;}
	.st2{fill:#FFFFFF;}
	.st3{fill:#EB2027;}
</style>
<g>
	
		<linearGradient id="SVGID_1_" gradientUnits="userSpaceOnUse" x1="0" y1="27.69" x2="227.78" y2="27.69" gradientTransform="matrix(1 0 0 -1 0 54)">
		<stop  offset="0" style="stop-color:#981C1F"/>
		<stop  offset="0.024" style="stop-color:#9F1C20"/>
		<stop  offset="0.112" style="stop-color:#B51D22"/>
		<stop  offset="0.2156" style="stop-color:#C61E25"/>
		<stop  offset="0.3431" style="stop-color:#D21F26"/>
		<stop  offset="0.5208" style="stop-color:#D91F27"/>
		<stop  offset="1" style="stop-color:#DB1F27"/>
	</linearGradient>
	<path class="st0" d="M227.78,47.71c0,2.71-2.2,4.91-4.91,4.91H4.91C2.2,52.62,0,50.42,0,47.71V4.91C0,2.2,2.2,0,4.91,0h217.95
		c2.71,0,4.91,2.2,4.91,4.91L227.78,47.71L227.78,47.71z"/>
	<g>
		<g>
			<g>
				<g>
					<path class="st1" d="M36.26,22.36c-0.75,0-0.69,0.73-0.69,0.73L35.56,33c0,1.38,1.1,1.52,1.1,1.52l14.86-0.01
						c2.31-0.07,4.52-1.46,4.52-1.46c10.49-8.95-1.65-16.9-1.65-16.9s-0.57-0.58-2.31-0.68c0.02,0.03-12.06,0-12.06,0
						c-0.61,0-1.03,0.39-1.25,0.77l-2.31,3.59c-0.47,0.8,0.66,0.75,0.66,0.75h14.05c5.98,3.9,0.63,8.1,0.63,8.1
						c-0.28,0.29-0.67,0.43-1.19,0.41h-6.89c-1.36,0-1.61-1.65-1.61-1.65l0.02-4.46c0-0.58-0.65-0.61-0.65-0.61
						C41.49,22.37,36.26,22.36,36.26,22.36z"/>
				</g>
				<path class="st1" d="M61.72,34.17V15.88h18.39c0.82,0.09,0.3,0.73,0.3,0.73c0.02,0-5.07,4.5-5.07,4.5h-7.37
					c-0.79,0.86,0,1.86,0,1.86h10.27c0.66,0.23-0.23,1.02-0.23,1.02l-3.5,3.07h-6.55c-0.77,0.84,0,1.74,0,1.74h11.1
					c0.96,0.12,0.15,0.89,0.15,0.89l-5.07,4.47C74.15,34.17,61.72,34.17,61.72,34.17z"/>
				<path class="st1" d="M93.87,33.41c-0.02,0.02-4.42-7.16-4.42-7.16c-0.21-0.34-0.41,0-0.41,0l-1.71,7.57
					c-0.1,0.25-0.35,0.27-0.35,0.27h-5.67c-0.57,0-0.47-0.47-0.47-0.47l3.99-16.13c1.25-2.99,5.27-1.57,5.27-1.57
					c1.01,0.56,1.43,1.51,1.43,1.51l3.44,6.43c0.47,0.87,0.95-0.02,0.95-0.02l3.41-6.42c0,0,0.41-0.96,1.43-1.51
					c0,0,4.02-1.42,5.27,1.57l3.99,16.13c0,0,0.1,0.47-0.48,0.47h-5.66c0,0-0.26-0.02-0.36-0.27l-1.72-7.57c0,0-0.18-0.34-0.39,0
					l-4.42,7.16C95.34,36.08,93.87,33.41,93.87,33.41z"/>
				<path class="st1" d="M172.87,33.13c-0.02,0.02-4.27-6.92-4.27-6.92c-0.21-0.33-0.38,0-0.38,0l-1.65,7.32
					c-0.1,0.24-0.34,0.26-0.34,0.26h-5.48c-0.56,0-0.46-0.45-0.46-0.45l3.86-15.58c1.22-2.9,5.1-1.52,5.1-1.52
					c0.97,0.54,1.38,1.47,1.38,1.47l3.32,6.21c0.46,0.86,0.91-0.02,0.91-0.02l3.29-6.2c0,0,0.41-0.92,1.38-1.47
					c0,0,3.88-1.38,5.1,1.52l3.86,15.58c0,0,0.1,0.45-0.45,0.45h-5.49c0,0-0.24-0.02-0.34-0.26l-1.65-7.32c0,0-0.17-0.33-0.38,0
					l-4.27,6.92C174.29,35.71,172.87,33.13,172.87,33.13z"/>
				<g>
					<path class="st2" d="M127.25,23.22c-0.11-1.09-0.5-1.92-1.18-2.51c-0.69-0.58-1.61-0.87-2.79-0.87c-1.5,0-2.65,0.41-3.45,1.24
						c-0.8,0.83-1.21,2.03-1.21,3.57s0.4,2.72,1.21,3.55c0.79,0.82,1.94,1.23,3.45,1.23c1.07,0,1.94-0.24,2.61-0.73
						s1.12-1.21,1.34-2.16h8.12c-0.37,2.45-1.59,4.31-3.63,5.57c-2.06,1.28-4.87,1.91-8.44,1.91c-4.04,0-7.09-0.79-9.14-2.37
						c-2.06-1.57-3.08-3.91-3.08-7s1.02-5.43,3.08-7.01c2.06-1.57,5.11-2.37,9.14-2.37c3.74,0,6.66,0.69,8.74,2.06
						c1.05,0.69,1.86,1.54,2.42,2.52c0.57,0.99,0.86,2.11,0.86,3.36H127.25z"/>
					<path class="st2" d="M135.89,24.65c0-3.1,1.03-5.43,3.09-7.01c2.06-1.57,5.1-2.37,9.14-2.37c4.04,0,7.08,0.79,9.13,2.36
						c2.06,1.57,3.09,3.92,3.09,7.02s-1.03,5.43-3.09,7c-2.06,1.57-5.11,2.37-9.13,2.37c-4.04,0-7.08-0.79-9.14-2.37
						C136.92,30.09,135.89,27.75,135.89,24.65z M143.47,24.65c0,1.54,0.39,2.72,1.19,3.55c0.8,0.82,1.95,1.23,3.46,1.23
						c1.49,0,2.64-0.41,3.45-1.23c0.8-0.83,1.22-2,1.22-3.55c0-1.56-0.41-2.76-1.2-3.58c-0.8-0.83-1.96-1.24-3.46-1.24
						c-1.5,0-2.65,0.41-3.45,1.24C143.86,21.92,143.47,23.11,143.47,24.65z"/>
				</g>
			</g>
		</g>
		<g>
			<path class="st2" d="M192.22,13.17c0,1.51-1.22,2.74-2.74,2.74h-2c-1.51,0-2.73-1.22-2.73-2.74v-0.73c0-1.51,1.22-2.74,2.73-2.74
				h2c1.51,0,2.74,1.22,2.74,2.74V13.17z"/>
			<g>
				<path class="st3" d="M186.66,11.13c0.41-0.05,1.01-0.07,1.57-0.07c0.88,0,1.44,0.08,1.84,0.28c0.32,0.15,0.5,0.37,0.5,0.63
					c0,0.44-0.53,0.73-1.2,0.86v0.02c0.49,0.09,0.79,0.33,0.93,0.67c0.21,0.47,0.36,0.79,0.5,0.92h-0.85
					c-0.11-0.09-0.24-0.38-0.43-0.8c-0.19-0.46-0.53-0.63-1.28-0.65h-0.77v1.45h-0.82V11.13L186.66,11.13z M187.49,12.65h0.84
					c0.88,0,1.44-0.25,1.44-0.63c0-0.44-0.6-0.62-1.47-0.63c-0.4,0-0.68,0.02-0.82,0.04L187.49,12.65L187.49,12.65z"/>
			</g>
		</g>
	</g>
</g>
</svg>
